<svg aria-hidden="true" style="position: absolute; width: 0; height: 0; overflow: hidden;" version="1.1" xmlns="http://www.w3.org/2000/svg" xmlns:xlink="http://www.w3.org/1999/xlink">
<defs>
<symbol id="icon-copy" viewBox="0 0 28 28">
<path d="M26.5 6c0.828 0 1.5 0.672 1.5 1.5v19c0 0.828-0.672 1.5-1.5 1.5h-15c-0.828 0-1.5-0.672-1.5-1.5v-4.5h-8.5c-0.828 0-1.5-0.672-1.5-1.5v-10.5c0-0.828 0.484-1.984 1.062-2.562l6.375-6.375c0.578-0.578 1.734-1.062 2.562-1.062h6.5c0.828 0 1.5 0.672 1.5 1.5v5.125c0.609-0.359 1.391-0.625 2-0.625h6.5zM18 9.328l-4.672 4.672h4.672v-4.672zM8 3.328l-4.672 4.672h4.672v-4.672zM11.062 13.438l4.937-4.937v-6.5h-6v6.5c0 0.828-0.672 1.5-1.5 1.5h-6.5v10h8v-4c0-0.828 0.484-1.984 1.062-2.562zM26 26v-18h-6v6.5c0 0.828-0.672 1.5-1.5 1.5h-6.5v10h14z"></path>
</symbol>
<symbol id="icon-logo" viewBox="0 0 32 32">
<path d="M16.216 6.137c0 0.205-0.099 0.261-0.187 0.099-0.093-0.174-0.187-0.155-0.187 0.043-0.006 0.099-0.087 0.267-0.187 0.392-0.187 0.211-0.242 0.373-0.125 0.373 0.031 0 0.043 0.043 0.025 0.093-0.031 0.074 0.012 0.093 0.211 0.093 0.33 0 0.423 0.106 0.472 0.541 0.050 0.441 0.199 0.665 0.634 0.964 0.336 0.23 0.336 0.23 0.336 0.081 0-0.131 0.031-0.155 0.193-0.155s0.187 0.019 0.143 0.106c-0.168 0.385-0.068 0.908 0.242 1.243l0.125 0.143h-0.379c-0.342 0-0.385 0.012-0.385 0.125 0 0.118 0.043 0.125 0.765 0.125 0.653 0 0.79-0.019 0.964-0.125 0.808-0.491 0.199-2.306-0.901-2.704-0.926-0.336-1.032-0.429-1.48-1.262-0.193-0.354-0.28-0.41-0.28-0.174z"></path>
<path d="M12.175 7.412c-0.311 0.099-0.553 0.255-0.796 0.535-0.342 0.392-0.472 0.79-0.416 1.293 0.025 0.211 0.056 2.499 0.068 5.079 0.031 5.073 0.012 4.886 0.348 4.799 0.292-0.075 0.298-0.149 0.298-4.805 0-3.829-0.012-4.401-0.099-4.7-0.267-0.908 0.267-1.716 1.131-1.703 0.18 0 0.392 0.031 0.454 0.068 0.292 0.155 0.584-0.043 0.448-0.304-0.149-0.267-0.939-0.41-1.436-0.261z"></path>
<path d="M2.415 7.455c0 0.019 0.062 0.143 0.137 0.273l0.143 0.242 0.466-0.006c0.584-0.006 0.914 0.118 1.231 0.479 0.125 0.143 0.603 0.932 1.057 1.747 0.454 0.821 0.852 1.529 0.883 1.573 0.043 0.081 0.087 0.075 0.273-0.025 0.125-0.068 0.224-0.155 0.224-0.193 0-0.106-1.66-3.059-1.884-3.357-0.236-0.311-0.572-0.56-0.92-0.678-0.249-0.087-1.61-0.137-1.61-0.056z"></path>
<path d="M13.978 7.443c0 0.019 0.155 0.074 0.342 0.131 0.572 0.162 0.771 0.398 1.361 1.61 1.212 2.487 3.525 7.273 3.823 7.907l0.317 0.69v3.282l0.155-0.267c0.087-0.149 0.211-0.348 0.28-0.448 0.118-0.162 0.125-0.267 0.125-1.473v-1.299l-0.833-1.741c-2.741-5.732-3.693-7.659-3.904-7.932-0.267-0.342-0.615-0.485-1.187-0.485-0.261 0-0.479 0.012-0.479 0.025z"></path>
<path d="M24.384 7.555c0.056 0.074 0.099 0.205 0.099 0.28v0.143h2.549l0.249-0.224c0.137-0.125 0.249-0.249 0.249-0.28s-0.721-0.056-1.623-0.056h-1.616l0.093 0.137z"></path>
<path d="M27.978 7.493c-0.348 0.118-0.566 0.423-1.299 1.859-0.392 0.765-0.889 1.747-1.113 2.182-0.628 1.231-1.075 1.579-2.356 1.846-1.013 0.218-1.405 0.466-1.722 1.088-0.143 0.28-0.218 0.939-0.149 1.305 0.031 0.174 0.075 0.224 0.18 0.224 0.23 0 0.273-0.075 0.311-0.566 0.037-0.553 0.193-0.908 0.491-1.137 0.261-0.193 0.435-0.261 1.094-0.404 1.088-0.242 1.672-0.566 2.169-1.218 0.143-0.193 0.74-1.299 1.324-2.456 1.169-2.331 1.274-2.48 1.834-2.642 0.187-0.056 0.342-0.112 0.342-0.131 0-0.050-0.908-0.012-1.106 0.050z"></path>
<path d="M24.726 8.394c-0.479 0.249-0.945 0.951-0.622 0.951 0.062 0 0.149 0.043 0.193 0.093 0.068 0.081 0.099 0.050 0.218-0.205 0.162-0.348 0.361-0.497 0.727-0.547 0.485-0.062 0.908 0.286 0.982 0.796l0.031 0.267 0.174-0.286c0.205-0.348 0.211-0.46 0.012-0.752-0.336-0.491-1.088-0.628-1.716-0.317z"></path>
<path d="M2.614 8.512c-0.137 0.093-0.137 0.112-0.137 1.753 0 0.914 0.031 1.759 0.062 1.884 0.037 0.118 0.125 0.28 0.205 0.354 0.131 0.118 0.174 0.131 0.342 0.068 0.23-0.081 0.236-0.099 0.093-0.261-0.099-0.106-0.118-0.317-0.143-1.921-0.031-1.734-0.037-1.809-0.155-1.89-0.112-0.075-0.149-0.068-0.267 0.012z"></path>
<path d="M3.385 8.972c-0.056 0.149-0.099 0.429-0.099 0.69 0 0.242-0.031 0.777-0.068 1.187-0.087 0.864-0.031 1.131 0.255 1.374 0.267 0.23 1.119 0.535 1.473 0.528 0.373 0 0.727 0.143 0.833 0.33 0.074 0.143 0.074 0.143 0.125 0.025 0.025-0.068 0.050-0.304 0.050-0.528 0.006-0.746-0.373-1.274-1.1-1.523-0.162-0.050-0.336-0.131-0.392-0.174-0.261-0.199-0.497-0.839-0.28-0.752 0.187 0.075 0.273-0.379 0.131-0.659-0.050-0.099-0.093-0.292-0.093-0.435 0-0.292-0.050-0.304-0.249-0.093-0.187 0.199-0.242 0.199-0.317-0.031-0.087-0.249-0.149-0.236-0.267 0.062z"></path>
<path d="M13.307 9.022c-0.075 0.099-0.137 0.218-0.137 0.255s-0.125 0.068-0.304 0.068c-0.28 0-0.317-0.019-0.435-0.218-0.068-0.118-0.155-0.218-0.187-0.218-0.075 0-0.155 0.541-0.137 0.914 0.006 0.099 0.043 0.143 0.131 0.143 0.068 0 0.125 0.031 0.125 0.068s-0.056 0.056-0.125 0.037c-0.093-0.025-0.125 0-0.125 0.087 0 0.099 0.031 0.112 0.155 0.081 0.118-0.031 0.155-0.012 0.155 0.062 0 0.056-0.043 0.099-0.099 0.099-0.062 0-0.081 0.037-0.056 0.118 0.019 0.068-0.037 0.255-0.137 0.448-0.311 0.609-0.261 1.753 0.106 2.375 0.075 0.131 0.162 0.23 0.187 0.23 0.075 0 0.143-0.876 0.093-1.237-0.043-0.317 0-0.385 0.143-0.242 0.050 0.050 0.075 0.311 0.081 0.727 0 0.367 0.019 0.622 0.037 0.578 0.012-0.037 0.068-0.075 0.118-0.075 0.068 0 0.087-0.112 0.087-0.535 0-0.51 0.062-0.771 0.187-0.771 0.037 0 0.050 0.168 0.025 0.429-0.025 0.236-0.025 0.479 0 0.535 0.031 0.093 0.056 0.087 0.162-0.037 0.068-0.081 0.118-0.125 0.125-0.087 0 0.155-0.273 0.479-0.678 0.802-0.348 0.28-0.472 0.429-0.64 0.765l-0.205 0.416-0.031 2.058c-0.031 2.002-0.037 2.058-0.168 2.244-0.149 0.205-0.535 0.398-0.796 0.398-0.137 0-0.155 0.025-0.155 0.249 0 0.249 0 0.249 0.236 0.249 0.802 0 1.442-0.64 1.442-1.448 0-0.125-0.025-0.23-0.062-0.23-0.081 0-0.249-0.336-0.249-0.491 0-0.068 0.068-0.174 0.155-0.23l0.155-0.099v-1.162c0-1.43 0.062-1.697 0.472-2.076 0.864-0.796 0.951-0.895 1.057-1.262 0.162-0.566 0.093-0.97-0.292-1.765-0.187-0.398-0.304-0.715-0.286-0.777 0.031-0.068-0.006-0.118-0.099-0.149-0.118-0.050-0.125-0.062-0.031-0.099 0.056-0.025 0.137-0.025 0.174 0 0.031 0.019 0.062 0 0.062-0.050s-0.062-0.112-0.137-0.137c-0.137-0.043-0.137-0.050 0.037-0.075l0.18-0.031-0.043-0.423c-0.019-0.23-0.062-0.485-0.087-0.566-0.050-0.137-0.056-0.137-0.187 0.056z"></path>
<path d="M24.969 8.947c-0.218 0.118-0.354 0.379-0.429 0.821-0.031 0.193-0.106 0.423-0.168 0.51s-0.354 0.273-0.646 0.416c-0.808 0.398-1.106 0.765-1.156 1.455-0.031 0.429 0.075 0.771 0.273 0.908 0.33 0.211 1.25-0.043 1.542-0.435 0.137-0.187 0.174-0.609 0.075-0.939-0.050-0.162-0.043-0.168 0.068-0.106 0.068 0.031 0.162 0.149 0.205 0.255s0.099 0.168 0.125 0.143c0.087-0.093 0.385-1.106 0.392-1.324 0.006-0.125-0.043-0.392-0.106-0.603-0.112-0.361-0.112-0.398-0.012-0.547 0.112-0.168 0.224-0.193 0.404-0.081 0.093 0.056 0.143 0.056 0.218-0.006 0.137-0.118 0.125-0.236-0.056-0.41-0.174-0.18-0.466-0.199-0.727-0.056z"></path>
<path d="M19.045 10.508c-0.068 0.012-0.28 0.087-0.466 0.155-0.628 0.23-0.665 0.236-0.833 0.106-0.224-0.174-0.441-0.050-0.298 0.174 0.075 0.118 0.392 0.211 0.584 0.174 0.099-0.025 0.348-0.112 0.547-0.193 0.441-0.174 0.802-0.193 0.988-0.043 0.075 0.062 0.224 0.361 0.342 0.671 0.112 0.304 0.323 0.783 0.466 1.057 0.292 0.566 0.814 1.33 0.814 1.194 0-0.050-0.18-0.448-0.392-0.889-0.218-0.441-0.491-1.057-0.603-1.361-0.261-0.702-0.429-0.939-0.733-1.026-0.125-0.031-0.242-0.056-0.261-0.056-0.019 0.006-0.087 0.019-0.155 0.037z"></path>
<path d="M18.485 11.502c-0.019 0.099-0.075 0.304-0.131 0.46-0.093 0.286-0.056 0.553 0.093 0.646 0.037 0.019 0.068 0.155 0.068 0.298 0 0.292 0.168 0.702 0.348 0.864 0.062 0.056 0.242 0.162 0.398 0.242 0.416 0.205 0.429 0.224 0.373 0.429-0.087 0.311 0.031 0.591 0.404 0.908 0.404 0.342 0.479 0.547 0.423 1.175-0.043 0.56 0.093 0.908 0.479 1.218 0.591 0.466 0.733 0.634 0.777 0.939 0.075 0.51-0.143 0.92-0.702 1.305-0.572 0.392-0.87 0.852-1.075 1.654-0.106 0.41-0.118 0.69-0.118 2.418v1.946h0.56v-0.298c0.006-1.131 0.068-4.072 0.093-4.302 0.043-0.385 0.273-0.696 0.684-0.932 0.708-0.404 1.113-1.020 1.106-1.685-0.006-0.491-0.193-0.802-0.746-1.25-0.485-0.398-0.628-0.653-0.547-1.001 0.025-0.112 0.062-0.646 0.075-1.2 0.019-0.901 0.012-1.032-0.106-1.349-0.162-0.435-0.491-0.796-0.964-1.057l-0.373-0.205 0.019-0.317c0.012-0.18-0.006-0.416-0.043-0.528s-0.081-0.28-0.099-0.379c-0.043-0.211-0.112-0.218-0.205-0.012-0.056 0.118-0.118 0.155-0.28 0.155s-0.23-0.037-0.292-0.155c-0.106-0.199-0.174-0.199-0.218 0.012z"></path>
<path d="M6.413 12.341c-0.031 0.149-0.056 0.522-0.056 0.827 0.006 0.64 0.093 0.839 0.435 1.007 0.193 0.093 0.205 0.112 0.174 0.361-0.043 0.392 0.081 0.852 0.373 1.38l0.255 0.466 0.118-0.236c0.062-0.137 0.236-0.367 0.385-0.522s0.304-0.342 0.342-0.416c0.143-0.28 0.056-0.733-0.193-0.995-0.118-0.125-0.118-0.137-0.019-0.292 0.056-0.087 0.106-0.261 0.106-0.392-0.006-0.131-0.006-0.454-0.006-0.715 0-0.267-0.031-0.541-0.068-0.615l-0.075-0.131-0.143 0.137c-0.081 0.075-0.174 0.211-0.218 0.304-0.062 0.162-0.081 0.168-0.454 0.143-0.255-0.012-0.404-0.056-0.448-0.118-0.131-0.199-0.354-0.454-0.404-0.454-0.025 0-0.074 0.118-0.106 0.261z"></path>
<path d="M3.161 12.758c-0.472 0.143-0.727 0.392-0.653 0.628 0.062 0.193 0.255 0.205 0.547 0.037 0.628-0.373 1.361-0.056 1.691 0.727 0.081 0.199 0.093 0.964 0.093 6.042v5.812h0.622l-0.012-5.862-0.019-5.856-0.211-0.429c-0.112-0.236-0.317-0.535-0.454-0.665-0.404-0.392-1.113-0.584-1.604-0.435z"></path>
<path d="M4.902 12.976c0 0.025 0.106 0.236 0.242 0.46 0.131 0.23 0.373 0.678 0.535 1.001 0.622 1.243 4.507 8.287 4.824 8.753 0.106 0.149 0.255 0.286 0.342 0.304 0.28 0.068 0.976-0.012 1.237-0.149 0.926-0.479 1.212-1.772 0.547-2.505-0.385-0.429-0.87-0.597-1.386-0.485-0.33 0.075-0.497 0.211-0.497 0.398 0 0.23 0.137 0.292 0.392 0.187 0.304-0.125 0.454-0.118 0.771 0.037 0.454 0.218 0.646 0.808 0.429 1.318-0.18 0.429-0.858 0.814-1.212 0.69-0.112-0.043-0.367-0.454-1.013-1.61-1.318-2.368-1.859-3.344-2.723-4.942-1.448-2.679-1.772-3.251-1.902-3.338-0.149-0.099-0.584-0.18-0.584-0.118z"></path>
<path d="M3.528 14.269c-0.218 0.423-0.342 0.46-0.609 0.168-0.242-0.261-0.466-0.236-0.491 0.056-0.019 0.162 0.019 0.242 0.193 0.416 0.199 0.199 0.255 0.218 0.56 0.218 0.28 0 0.379-0.031 0.541-0.162 0.454-0.385 0.503-0.957 0.081-0.957-0.106 0-0.174 0.068-0.273 0.261z"></path>
<path d="M13.605 14.25c-0.665 0.348-0.671 1.281-0.006 1.623 0.137 0.068 0.317 0.125 0.398 0.125 0.149 0 0.149-0.006 0.087-0.28-0.037-0.155-0.099-0.28-0.137-0.28-0.236 0-0.367-0.466-0.18-0.646 0.106-0.112 0.429-0.137 0.491-0.037s0.336 0.068 0.392-0.050c0.137-0.255-0.205-0.572-0.622-0.572-0.112 0-0.304 0.050-0.423 0.118z"></path>
<path d="M23.626 15.717l-0.759 1.523v1.020c0 0.932-0.012 1.026-0.131 1.181-0.068 0.093-0.187 0.162-0.273 0.162-0.168 0-0.255 0.162-0.118 0.211 0.155 0.062 0.503 0.043 0.671-0.037 0.311-0.137 0.41-0.491 0.41-1.461v-0.87l0.746-1.504c0.41-0.827 0.746-1.542 0.746-1.585 0-0.050-0.062-0.099-0.137-0.125-0.367-0.093-0.354-0.118-1.156 1.486z"></path>
<path d="M22.849 14.704c-0.155 0.242-0.168 0.298-0.131 0.646 0.050 0.516-0.087 0.684-0.659 0.783-0.41 0.068-0.74 0.199-0.821 0.323-0.081 0.118-0.056 0.41 0.050 0.566 0.131 0.205 0.168 0.199 0.292-0.056 0.106-0.224 0.137-0.236 0.845-0.416 0.41-0.099 0.628-0.361 0.628-0.746 0-0.23 0.025-0.304 0.093-0.304 0.056 0 0.112 0.043 0.131 0.093 0.056 0.131 0.143 0.056 0.28-0.242 0.137-0.311 0.162-0.646 0.037-0.541-0.125 0.099-0.466-0.050-0.522-0.224-0.050-0.143-0.056-0.137-0.224 0.118z"></path>
<path d="M8.756 14.878c0 0.292-0.149 0.591-0.466 0.926-0.348 0.373-0.497 0.783-0.404 1.119 0.031 0.125 0.261 0.572 0.503 1.001s0.553 0.97 0.69 1.212c0.336 0.603 0.361 0.615 0.361 0.174 0-0.479-0.093-0.74-0.56-1.535-0.379-0.646-0.485-0.957-0.416-1.231 0.037-0.149 0.398-0.591 0.435-0.541 0.012 0.012 0.267 0.454 0.56 0.97l0.535 0.951 0.019 1.448 0.019 1.455 0.261 0.522c0.448 0.883 0.821 1.194 1.131 0.939 0.211-0.168 0.131-0.348-0.211-0.479-0.168-0.062-0.348-0.193-0.454-0.33l-0.168-0.218-0.062-3.618-0.367-0.622c-0.199-0.342-0.584-1.007-0.858-1.479-0.273-0.466-0.51-0.852-0.522-0.852s-0.025 0.087-0.025 0.187z"></path>
<path d="M2.82 15.512c-0.354 0.273-0.342 0.118-0.342 5.52v4.973h0.56v-4.905c0-2.717 0.025-4.973 0.056-5.054s0.143-0.236 0.255-0.342c0.193-0.187 0.193-0.199 0.075-0.261-0.199-0.106-0.417-0.081-0.603 0.068z"></path>
<path d="M3.534 16.351c0 0.099-0.019 0.242-0.043 0.317-0.031 0.131-0.019 0.143 0.112 0.131 0.155-0.025 0.479 0.224 0.404 0.304-0.025 0.019-0.087-0.025-0.137-0.106-0.106-0.143-0.336-0.162-0.379-0.025-0.019 0.043 0.019 0.056 0.099 0.037 0.075-0.019 0.131-0.006 0.131 0.037 0 0.037-0.043 0.068-0.099 0.068s-0.087 0.037-0.068 0.075c0.012 0.043-0.037 0.205-0.118 0.361-0.137 0.261-0.149 0.354-0.149 1.38-0.006 0.889 0.012 1.131 0.093 1.287 0.155 0.304 0.28 0.249 0.28-0.125 0-0.429 0.149-0.379 0.174 0.056 0.031 0.547 0.261 0.379 0.261-0.193 0-0.236 0.081-0.311 0.149-0.131 0.019 0.056 0.037 0.224 0.037 0.379 0 0.255 0.012 0.273 0.106 0.199 0.218-0.187 0.267-0.46 0.267-1.467 0-0.914-0.012-1.007-0.155-1.312-0.087-0.187-0.155-0.373-0.155-0.423s-0.043-0.087-0.099-0.087c-0.050 0-0.074-0.031-0.056-0.068 0.025-0.037 0.081-0.050 0.131-0.031s0.087-0.006 0.087-0.062c0-0.075-0.043-0.093-0.18-0.075-0.106 0.012-0.174 0.006-0.155-0.025 0.019-0.025 0.112-0.050 0.205-0.050 0.168 0 0.174-0.006 0.131-0.28-0.050-0.342-0.093-0.392-0.187-0.224-0.093 0.18-0.472 0.187-0.528 0.006s-0.155-0.149-0.155 0.043z"></path>
<path d="M13.574 16.886c-0.037 0.18-0.075 0.218-0.323 0.28-0.193 0.056-0.379 0.174-0.597 0.385l-0.317 0.311 0.106 0.218c0.081 0.174 0.155 0.23 0.373 0.292l0.273 0.068-0.162 0.348c-0.224 0.491-0.224 1.137 0 1.623l0.162 0.342 0.106-0.218c0.062-0.118 0.249-0.361 0.416-0.528 0.404-0.416 0.491-0.69 0.491-1.548 0-0.702-0.081-1.119-0.286-1.548-0.137-0.286-0.193-0.292-0.242-0.025z"></path>
<path d="M13.748 20.236c-0.379 0.398-0.416 0.503-0.454 1.324-0.043 0.908-0.131 1.113-0.721 1.772-0.541 0.603-0.733 1.013-0.733 1.585-0.006 0.528 0.18 1.001 0.41 1.057 0.081 0.019 0.454 0.025 0.839 0.019 0.597-0.019 0.69-0.031 0.64-0.112-0.037-0.062-0.149-0.087-0.373-0.075l-0.323 0.012 0.131-0.162c0.075-0.093 0.131-0.23 0.131-0.317 0-0.131 0.012-0.137 0.131-0.081 0.187 0.106 0.597 0.093 0.771-0.025 0.454-0.298 0.485-1.007 0.037-0.957-0.125 0.012-0.174 0.068-0.224 0.249-0.031 0.125-0.081 0.249-0.106 0.267-0.087 0.093-0.361-0.037-0.454-0.218-0.155-0.298-0.112-0.56 0.193-1.181 0.41-0.852 0.46-1.094 0.46-2.344 0-0.591-0.025-1.075-0.050-1.075s-0.162 0.118-0.304 0.261z"></path>
<path d="M21.966 20.174c-0.093 0.137-0.087 0.143 0.025 0.162 0.218 0.037 0.429 0.317 0.503 0.665 0.118 0.572 0.479 0.883 0.939 0.808 0.261-0.043 0.522-0.298 0.591-0.566 0.093-0.361-0.125-0.808-0.472-0.988-0.18-0.093-0.51-0.125-0.572-0.056-0.081 0.075 0.037 0.28 0.174 0.311 0.087 0.025 0.205 0.112 0.273 0.193 0.211 0.273 0.131 0.578-0.155 0.578-0.149 0-0.249-0.137-0.311-0.435-0.075-0.336-0.205-0.553-0.423-0.684-0.261-0.162-0.448-0.155-0.572 0.012z"></path>
<path d="M20.86 20.995c-0.019 0.050-0.056 0.261-0.081 0.466-0.037 0.367-0.037 0.379 0.106 0.379 0.137 0.006 0.143 0.012 0.043 0.087-0.162 0.118-0.137 0.211 0.043 0.174 0.093-0.012 0.155 0 0.155 0.043 0 0.037-0.043 0.068-0.093 0.068-0.056 0-0.087 0.056-0.087 0.137 0.006 0.081-0.050 0.28-0.131 0.448-0.224 0.497-0.224 0.889 0 1.778 0.311 1.237 0.373 1.43 0.472 1.43 0.068 0 0.087-0.149 0.087-0.808 0-0.678 0.012-0.808 0.093-0.808s0.093 0.131 0.093 0.814c0 0.727 0.012 0.808 0.106 0.79 0.081-0.012 0.131-0.174 0.23-0.671l0.125-0.653 0.099 0.435c0.093 0.398 0.323 0.839 0.441 0.839 0.031 0 0.125-0.125 0.218-0.28 0.336-0.578 0.261-1.368-0.199-2.114-0.435-0.702-0.634-1.1-0.603-1.218 0.025-0.081 0-0.118-0.068-0.118-0.056 0-0.099-0.031-0.099-0.068 0-0.043 0.062-0.056 0.155-0.043 0.18 0.037 0.205-0.056 0.050-0.174-0.106-0.075-0.099-0.081 0.037-0.087 0.143 0 0.143-0.012 0.106-0.33-0.087-0.646-0.131-0.715-0.286-0.435-0.081 0.143-0.137 0.168-0.416 0.174-0.261 0.012-0.336-0.012-0.361-0.099-0.056-0.168-0.199-0.261-0.236-0.155z"></path>
<path d="M3.392 21.38c-0.025 0.025-0.043 0.211-0.043 0.41 0 0.298 0.019 0.361 0.112 0.367 0.062 0 0.075 0.019 0.031 0.037-0.137 0.050-0.093 0.199 0.043 0.162 0.131-0.037 0.18 0.075 0.050 0.118-0.037 0.012-0.075 0.093-0.087 0.18-0.006 0.081-0.068 0.304-0.143 0.491-0.168 0.448-0.162 0.56 0.031 1.424 0.093 0.398 0.199 0.87 0.236 1.057s0.112 0.354 0.155 0.367c0.068 0.025 0.081-0.131 0.056-0.814l-0.025-0.839 0.155 0.012 0.149 0.006-0.043 0.821c-0.037 0.715-0.025 0.827 0.056 0.827 0.050 0 0.093-0.012 0.093-0.031s0.099-0.485 0.224-1.044c0.255-1.131 0.261-1.566 0.031-2.014-0.068-0.143-0.112-0.304-0.093-0.354 0.025-0.068 0-0.099-0.068-0.099-0.056 0-0.093-0.037-0.074-0.081 0.012-0.037 0.093-0.068 0.174-0.056 0.137 0.012 0.143 0.012 0.037-0.068-0.099-0.087-0.099-0.093 0.025-0.125s0.131-0.062 0.087-0.398c-0.025-0.199-0.056-0.373-0.074-0.392-0.012-0.019-0.081 0.037-0.143 0.125-0.155 0.218-0.615 0.218-0.79 0.006-0.062-0.075-0.137-0.118-0.162-0.093z"></path>
<path d="M23.098 22.568c-0.050 0.062-0.125 0.23-0.162 0.373-0.068 0.255-0.006 0.733 0.18 1.386 0.106 0.361 0.075 0.995-0.062 1.287-0.143 0.317-0.062 0.354 0.118 0.062 0.28-0.454 0.298-0.715 0.118-1.623-0.174-0.864-0.168-1.169 0.043-1.343 0.050-0.043 0.093-0.118 0.093-0.162 0-0.125-0.211-0.106-0.33 0.019z"></path>
<path d="M10.174 23.6c-0.224 0.193-0.298 0.361-0.298 0.696 0 0.479 0.168 0.69 1.088 1.393 0.46 0.354 0.646 0.41 0.553 0.174-0.019-0.062-0.273-0.28-0.566-0.485-0.535-0.392-0.808-0.715-0.827-0.988-0.025-0.33 0.006-0.435 0.187-0.64 0.099-0.118 0.168-0.23 0.143-0.255-0.062-0.062-0.099-0.043-0.28 0.106z"></path>
</symbol>
</defs>
</svg>
